<svg xmlns="http://www.w3.org/2000/svg" fill="none" viewBox="0 0 32 32" height="1024" width="1024">
<path fill="url(#paint0_radial_30_30)" d="M15.9989 29.9978C25.3333 29.9978 29.9978 23.7303 29.9978 15.9989C29.9978 8.26751 25.3333 2 15.9989 2C6.66443 2 2 8.26751 2 15.9989C2 23.7303 6.66443 29.9978 15.9989 29.9978Z"></path>
<path fill="url(#paint1_radial_30_30)" d="M15.9989 29.9978C25.3333 29.9978 29.9978 23.7303 29.9978 15.9989C29.9978 8.26751 25.3333 2 15.9989 2C6.66443 2 2 8.26751 2 15.9989C2 23.7303 6.66443 29.9978 15.9989 29.9978Z"></path>
<path fill="url(#paint2_radial_30_30)" d="M15.9989 29.9978C25.3333 29.9978 29.9978 23.7303 29.9978 15.9989C29.9978 8.26751 25.3333 2 15.9989 2C6.66443 2 2 8.26751 2 15.9989C2 23.7303 6.66443 29.9978 15.9989 29.9978Z"></path>
<path fill-opacity="0.6" fill="url(#paint3_radial_30_30)" d="M15.9989 29.9978C25.3333 29.9978 29.9978 23.7303 29.9978 15.9989C29.9978 8.26751 25.3333 2 15.9989 2C6.66443 2 2 8.26751 2 15.9989C2 23.7303 6.66443 29.9978 15.9989 29.9978Z"></path>
<path fill="url(#paint4_radial_30_30)" d="M15.9989 29.9978C25.3333 29.9978 29.9978 23.7303 29.9978 15.9989C29.9978 8.26751 25.3333 2 15.9989 2C6.66443 2 2 8.26751 2 15.9989C2 23.7303 6.66443 29.9978 15.9989 29.9978Z"></path>
<path fill="url(#paint5_radial_30_30)" d="M15.9989 29.9978C25.3333 29.9978 29.9978 23.7303 29.9978 15.9989C29.9978 8.26751 25.3333 2 15.9989 2C6.66443 2 2 8.26751 2 15.9989C2 23.7303 6.66443 29.9978 15.9989 29.9978Z"></path>
<path fill="url(#paint6_radial_30_30)" d="M15.9989 29.9978C25.3333 29.9978 29.9978 23.7303 29.9978 15.9989C29.9978 8.26751 25.3333 2 15.9989 2C6.66443 2 2 8.26751 2 15.9989C2 23.7303 6.66443 29.9978 15.9989 29.9978Z"></path>
<path fill="url(#paint7_radial_30_30)" d="M15.9989 29.9978C25.3333 29.9978 29.9978 23.7303 29.9978 15.9989C29.9978 8.26751 25.3333 2 15.9989 2C6.66443 2 2 8.26751 2 15.9989C2 23.7303 6.66443 29.9978 15.9989 29.9978Z"></path>
<path stroke-linecap="round" stroke-width="2" stroke="url(#paint8_linear_30_30)" d="M9 13H13"></path>
<path stroke-linecap="round" stroke-width="2" stroke="url(#paint9_linear_30_30)" d="M19 13H23"></path>
<path fill="url(#paint10_linear_30_30)" d="M10 20C10 19.4477 10.4477 19 11 19H21C21.5523 19 22 19.4477 22 20C22 20.5523 21.5523 21 21 21H11C10.4477 21 10 20.5523 10 20Z" clip-rule="evenodd" fill-rule="evenodd"></path>
<defs>
<radialGradient gradientTransform="translate(25.5 9) rotate(132.839) scale(37.5033)" gradientUnits="userSpaceOnUse" r="1" cy="0" cx="0" id="paint0_radial_30_30">
<stop stop-color="#FFF478"></stop>
<stop stop-color="#FFB02E" offset="0.474827"></stop>
<stop stop-color="#F70A8D" offset="1"></stop>
</radialGradient>
<radialGradient gradientTransform="translate(25.5 9) rotate(131.878) scale(38.9487)" gradientUnits="userSpaceOnUse" r="1" cy="0" cx="0" id="paint1_radial_30_30">
<stop stop-color="#FFF478"></stop>
<stop stop-color="#FFB02E" offset="0.474827"></stop>
<stop stop-color="#F70A8D" offset="1"></stop>
</radialGradient>
<radialGradient gradientTransform="translate(16 12.5) rotate(101.31) scale(17.8466 22.8581)" gradientUnits="userSpaceOnUse" r="1" cy="0" cx="0" id="paint2_radial_30_30">
<stop stop-opacity="0" stop-color="#F59639" offset="0.787821"></stop>
<stop stop-color="#FF7DCE" offset="0.972509"></stop>
</radialGradient>
<radialGradient gradientTransform="translate(18 14) rotate(135) scale(41.0122)" gradientUnits="userSpaceOnUse" r="1" cy="0" cx="0" id="paint3_radial_30_30">
<stop stop-opacity="0" offset="0.314853"></stop>
<stop offset="1"></stop>
</radialGradient>
<radialGradient gradientTransform="translate(16 17) rotate(77.692) scale(28.1469)" gradientUnits="userSpaceOnUse" r="1" cy="0" cx="0" id="paint4_radial_30_30">
<stop stop-opacity="0" stop-color="#7D6133" offset="0.507903"></stop>
<stop stop-color="#715B32" offset="1"></stop>
</radialGradient>
<radialGradient gradientTransform="translate(16.5 16.5) rotate(55.7131) scale(13.3135 9.65032)" gradientUnits="userSpaceOnUse" r="1" cy="0" cx="0" id="paint5_radial_30_30">
<stop stop-color="#FFB849"></stop>
<stop stop-opacity="0" stop-color="#FFB847" offset="1"></stop>
</radialGradient>
<radialGradient gradientTransform="translate(20.5 18) rotate(9.86581) scale(11.6726)" gradientUnits="userSpaceOnUse" r="1" cy="0" cx="0" id="paint6_radial_30_30">
<stop stop-color="#FFA64B"></stop>
<stop stop-opacity="0" stop-color="#FFAE46" offset="0.900412"></stop>
</radialGradient>
<radialGradient gradientTransform="translate(17.5 15) rotate(43.9708) scale(59.0529)" gradientUnits="userSpaceOnUse" r="1" cy="0" cx="0" id="paint7_radial_30_30">
<stop stop-opacity="0" offset="0.185425"></stop>
<stop stop-opacity="0.4" offset="1"></stop>
</radialGradient>
<linearGradient gradientUnits="userSpaceOnUse" y2="13.5" x2="14" y1="12.5" x1="14" id="paint8_linear_30_30">
<stop stop-color="#4F3C43"></stop>
<stop stop-color="#512756" offset="1"></stop>
</linearGradient>
<linearGradient gradientUnits="userSpaceOnUse" y2="13.5" x2="24" y1="12.5" x1="24" id="paint9_linear_30_30">
<stop stop-color="#4F3C43"></stop>
<stop stop-color="#512756" offset="1"></stop>
</linearGradient>
<linearGradient gradientUnits="userSpaceOnUse" y2="20.5" x2="16" y1="19.5" x1="16" id="paint10_linear_30_30">
<stop stop-color="#4F3C43"></stop>
<stop stop-color="#512756" offset="1"></stop>
</linearGradient>
</defs>
</svg>
